<svg width="89" height="89" viewBox="0 0 89 89" fill="none" xmlns="http://www.w3.org/2000/svg">
<path d="M44.5012 -7.08979e-06C41.0924 -6.79178e-06 38.3289 2.76344 38.3289 6.17233C38.3289 9.58122 41.0924 12.3447 44.5012 12.3447C47.9101 12.3447 50.6736 9.58122 50.6736 6.17233C50.6736 2.76344 47.9101 -7.38781e-06 44.5012 -7.08979e-06Z" fill="#F7A872"/>
<path d="M9.29018 60.9843C5.88129 60.9843 3.11784 63.7477 3.11784 67.1566C3.11784 70.5655 5.88129 73.3289 9.29018 73.3289C12.6991 73.3289 15.4625 70.5655 15.4625 67.1566C15.4625 63.7477 12.6991 60.9843 9.29018 60.9843Z" fill="#F7A872"/>
<path d="M79.7099 60.9843C76.301 60.9843 73.5375 63.7477 73.5375 67.1566C73.5375 70.5655 76.301 73.3289 79.7099 73.3289C83.1188 73.3289 85.8822 70.5655 85.8822 67.1566C85.8822 63.7477 83.1188 60.9843 79.7099 60.9843Z" fill="#F7A872"/>
<path d="M9.1639 46.8318C6.51091 51.9373 5.37443 56.9775 5.88044 61.4532L6.05079 62.9597L9.06378 62.6188L8.89342 61.1124C8.51187 57.738 9.24056 53.9344 11.0018 49.9925C13.412 53.7493 16.5915 57.4324 20.3258 60.7838C21.3633 65.6983 22.9642 70.2944 25.0125 74.2582C20.7173 73.8134 17.058 72.5413 14.3253 70.52L13.1064 69.6185L11.3034 72.0563L12.5223 72.9578C16.1475 75.6389 21.0825 77.1761 26.8311 77.4297C31.5867 84.8987 37.8369 89 44.5005 89C51.1641 89 57.4143 84.8985 62.1699 77.4297C67.9174 77.1763 72.8522 75.6398 76.4782 72.9602L77.6974 72.0591L75.8953 69.6206L74.6761 70.5218C71.9424 72.542 68.283 73.8134 63.9883 74.2582C66.0366 70.2942 67.6375 65.6982 68.6748 60.7838C72.4095 57.432 75.5888 53.7491 77.999 49.9925C79.7602 53.9346 80.4889 57.7382 80.1074 61.1124L79.937 62.6188L82.95 62.9596L83.1204 61.4532C83.6265 56.9777 82.49 51.9375 79.8372 46.8317C83.928 38.9748 84.3551 31.5102 81.0238 25.7412C77.6918 19.9713 71.0133 16.6089 62.1645 16.2233C59.074 11.3747 55.2769 7.86995 51.1428 6.06908L49.7529 5.46363L48.5418 8.24351L49.9316 8.84896C53.0477 10.2064 55.977 12.7384 58.5075 16.2325C54.051 16.4415 49.2712 17.3553 44.5005 18.9133C39.7294 17.3553 34.9501 16.4415 30.4935 16.2325C33.0237 12.7386 35.9531 10.2064 39.0693 8.84896L40.4591 8.24351L39.248 5.46363L37.8581 6.06908C33.7239 7.87013 29.9266 11.3751 26.8364 16.2233C17.9875 16.6091 11.309 19.9714 7.97717 25.7412C4.64607 31.5104 5.07317 38.9748 9.1639 46.8318ZM12.6215 46.8283C14.3819 43.7828 16.709 40.7522 19.4749 37.8933C19.0953 40.8152 18.9001 43.8045 18.9001 46.8283C18.9001 49.8515 19.0953 52.8402 19.4749 55.7617C16.7083 52.9026 14.3814 49.8724 12.6215 46.8283ZM28.5624 19.2196C32.0774 19.2217 35.8646 19.722 39.7249 20.688C37.0065 21.8198 34.3202 23.1452 31.7 24.6579C29.0804 26.17 26.5896 27.8336 24.2502 29.6221C25.3448 25.7937 26.806 22.2634 28.5624 19.2196ZM60.4386 19.2196C62.1949 22.263 63.656 25.7935 64.7504 29.6221C62.411 27.8336 59.92 26.1702 57.3006 24.6579C54.6805 23.1452 51.9941 21.8196 49.2758 20.6878C53.136 19.7218 56.9227 19.2215 60.4386 19.2196ZM49.2759 72.9688C51.9943 71.8369 54.6805 70.5115 57.3008 68.9988C59.9211 67.486 62.4117 65.8226 64.7499 64.0346C63.6556 67.8623 62.1946 71.3928 60.4384 74.4373C56.923 74.435 53.1362 73.9347 49.2759 72.9688ZM55.7846 27.2838C59.4472 29.3982 62.8464 31.8164 65.9034 34.4711C66.674 38.4483 67.0688 42.6013 67.0688 46.8283C67.0688 51.0541 66.674 55.2067 65.9032 59.1837C62.8487 61.8381 59.4495 64.2569 55.7845 66.3726C52.1208 68.4878 48.3268 70.2226 44.5003 71.5425C40.674 70.2228 36.88 68.4879 33.2162 66.3726C29.5515 64.2569 26.1526 61.8385 23.0974 59.1837C22.3268 55.2065 21.932 51.0539 21.932 46.8283C21.932 42.6013 22.3268 38.4483 23.0974 34.4709C26.1542 31.8165 29.5534 29.3984 33.2162 27.2838C36.8798 25.1686 40.6736 23.4338 44.5003 22.1139C48.3268 23.4338 52.1208 25.1686 55.7846 27.2838ZM28.5626 74.4371C26.8064 71.3928 25.3453 67.8623 24.2509 64.0344C26.5893 65.8226 29.0799 67.486 31.7002 68.9988C34.3203 70.5115 37.0067 71.8371 39.7249 72.9688C35.8646 73.9345 32.0772 74.4347 28.5626 74.4371ZM44.5005 85.9679C39.3913 85.9679 34.4863 82.9542 30.4891 77.4217C34.9466 77.2131 39.7278 76.3014 44.5007 74.743C49.2735 76.3018 54.0547 77.214 58.512 77.4223C54.5145 82.9542 49.6095 85.9679 44.5005 85.9679ZM69.5262 55.7617C69.9057 52.8402 70.101 49.8515 70.101 46.8283C70.101 43.8042 69.9058 40.815 69.5262 37.8933C72.2922 40.7524 74.6192 43.783 76.3796 46.8283C74.6197 49.8724 72.2929 52.9022 69.5262 55.7617ZM78.3978 27.2577C80.952 31.6808 80.794 37.4366 78.0011 43.6672C75.5899 39.9076 72.4098 36.2228 68.6748 32.871C67.6372 27.9549 66.0359 23.3583 63.9873 19.3957C70.7793 20.0926 75.8433 22.8337 78.3978 27.2577ZM10.6032 27.2577C13.1578 22.8335 18.2218 20.0926 25.0135 19.3957C22.9647 23.3587 21.3636 27.9551 20.326 32.8706C16.5908 36.2228 13.4109 39.9074 10.9997 43.667C8.20714 37.4364 8.04914 31.6808 10.6032 27.2577Z" fill="#5DACD8"/>
<path d="M44.5012 34.0195C37.4266 34.0195 31.6915 39.7546 31.6915 46.8292C31.6915 53.9037 37.4266 59.6388 44.5012 59.6388C51.5758 59.6388 57.3109 53.9037 57.3109 46.8291C57.3109 39.7546 51.5758 34.0195 44.5012 34.0195Z" fill="#4EB79B"/>
<path d="M44.5005 34.0184C51.5755 34.0184 57.3102 39.7532 57.3102 46.8281C57.3102 53.9029 51.5754 59.6378 44.5005 59.6378C48.4348 59.6378 51.6211 53.9029 51.6211 46.8281C51.6211 39.7532 48.4346 34.0184 44.5005 34.0184Z" fill="#40A084"/>
<path d="M79.774 61.0481C80.887 61.0481 81.9298 61.3455 82.8282 61.868C84.6527 62.9214 85.8824 64.8967 85.8824 67.1566C85.8824 70.5315 83.1468 73.265 79.774 73.265C81.3394 73.265 82.6073 70.5313 82.6073 67.1566C82.6073 64.8968 82.0361 62.9216 81.1907 61.868C80.7742 61.3453 80.2899 61.0481 79.774 61.0481Z" fill="#E09461"/>
<path d="M9.35477 61.0481C10.4678 61.0481 11.5106 61.3455 12.409 61.868C14.2335 62.9214 15.4631 64.8967 15.4631 67.1566C15.4631 70.5315 12.7276 73.265 9.35477 73.265C10.9201 73.265 12.188 70.5313 12.188 67.1566C12.188 64.8968 11.6168 62.9216 10.7715 61.868C10.3552 61.3453 9.8707 61.0481 9.35477 61.0481Z" fill="#E09461"/>
<path d="M44.5643 0.0634838C45.6773 0.0634837 46.7201 0.360908 47.6185 0.883439C49.443 1.93685 50.6727 3.91207 50.6727 6.17203C50.6727 9.54693 47.9371 12.2804 44.5643 12.2804C46.1296 12.2804 47.3975 9.54676 47.3975 6.17203C47.3975 3.91225 46.8263 1.93702 45.981 0.883439C45.5647 0.36056 45.0806 0.0634837 44.5643 0.0634838Z" fill="#E09461"/>
</svg>
